<svg id="Layer_1" data-name="Layer 1" xmlns="http://www.w3.org/2000/svg" viewBox="0 0 2999.28 3950.64"><defs><style>.cls-1,.cls-3{fill:#231f20;}.cls-2{fill:#fff;}.cls-3{font-size:777.97px;font-family:BalletHarmony, Ballet Harmony;}.cls-4{letter-spacing:-0.01em;}.cls-5{letter-spacing:-0.03em;}.cls-6{font-family:RomanesqueSerif-Regular, Romanesque Serif;}.cls-7{letter-spacing:0em;}</style></defs><title>smokey&amp;apos;s chicken logo_black_white</title><path class="cls-1" d="M846.67,973.29a1965.78,1965.78,0,0,1,1418.39-1.62c-13,9.81-58.12,46.37-74.4,113.22s7,120.1,14,134.77a1810.88,1810.88,0,0,0-1294.94,22.11c8.2-17.78,30.13-71.36,16.18-139.09C910.43,1027.51,861.05,984.87,846.67,973.29Z" transform="translate(-500.36 -95.27)"/><path class="cls-1" d="M840.74,884.52,681.16,489.89l248,301.9L855.83,317.38l325.62,414A2935.75,2935.75,0,0,0,1354,477,2939,2939,0,0,0,1548.05,95.27a2364.87,2364.87,0,0,0,146.63,325.62,2365.28,2365.28,0,0,0,200.55,308.37,2002.46,2002.46,0,0,0,187.61-191.93,2004.29,2004.29,0,0,0,166-224.26Q2201.45,555.67,2154,798.26l256.62-306.21L2246.73,884.52a2041.56,2041.56,0,0,0-524-114.29,1075.62,1075.62,0,0,1-79.79-114.29,1079.93,1079.93,0,0,1-97-207,1353.55,1353.55,0,0,1-64.69,146.64,1354.63,1354.63,0,0,1-105.67,172.51c-81.88,10.6-170,25.22-263.08,45.29C1014.14,834.54,923.39,858.94,840.74,884.52Z" transform="translate(-500.36 -95.27)"/><path class="cls-1" d="M1591.62,1450.76c-21.2,13.32-48.39,24.86-79,32.52-29.29,7.35-57.52,10.11-81.79,8.8a101.9,101.9,0,1,0,160.75-41.32Z" transform="translate(-500.36 -95.27)"/><path class="cls-2" d="M1627.86,1528.68a101.89,101.89,0,1,1-197-36.6c24.27,1.31,52.5-1.45,81.79-8.8,30.57-7.66,57.76-19.2,79-32.52A101.62,101.62,0,0,1,1627.86,1528.68Z" transform="translate(-500.36 -95.27)"/><circle class="cls-1" cx="1031.68" cy="1436.91" r="35.45"/><text class="cls-3" transform="translate(0 3669.01) scale(1.14 1)">Sm<tspan class="cls-4" x="1041.68" y="0">o</tspan><tspan x="1290.64" y="0">k</tspan><tspan class="cls-5" x="1586.26" y="0">e</tspan><tspan x="1852.34" y="0">y</tspan><tspan class="cls-6" x="2137.07" y="0">’</tspan><tspan class="cls-7" x="2333.12" y="0">s</tspan></text><path class="cls-1" d="M959.37,1774.87a1985.67,1985.67,0,0,0-146.63,345c-44.32,139.67-91.47,275.89-82,452.85,4.4,81.81,12.32,393.52,215.64,530.48,27.67,18.63,79.83,52.74,146.64,47.44,114.49-9.09,183.62-137.68,228.58-220,45.29-82.88,81.78-190.22,103.51-465.79a3975,3975,0,0,0,8.63-478.72c-48.16,4.45-122.53,4.9-207-21.57C1077.91,1918,991.77,1817.33,959.37,1774.87Z" transform="translate(-500.36 -95.27)"/><path class="cls-1" d="M1481.23,2013.33q-2.16,179-4.31,358A830.68,830.68,0,0,0,1675.31,2229c113.58-110.24,170.44-229,198.39-301.9Z" transform="translate(-500.36 -95.27)"/><path class="cls-1" d="M1254.81,3100.44H3499.64a1576,1576,0,0,0-317-414L3312,2772.75a1365.28,1365.28,0,0,0-293.27-405.4l150.95,120.75A982.77,982.77,0,0,0,3049,2294c-89-111.4-184.84-180.83-181.14-185.46,1.72-2.15,24.24,10.85,120.76,81.95a1113.47,1113.47,0,0,0-64.7-94.89,1124.94,1124.94,0,0,0-194.07-198.39l116.44,43.13c-41.46-46.9-88.74-96.33-142.32-146.63-52-48.84-102.84-91.79-150.94-129.39l116.44,43.13a1437.07,1437.07,0,0,0-176.83-207c-37.41-36.2-156.94-150.37-314.13-230.48-246.15-125.44-480.28-114.17-710-103.11,0,0-288.85,13.89-567.09,115.71-66.5,24.34-135,58.3-135,58.3-55.77,27.66-88.86,44.07-126.16,74.4-27.55,22.42-65.74,59.22-100.27,116.45a581.62,581.62,0,0,1,61.46-22.64c84.44-25.84,153.77-26,190.84-25.87A708.52,708.52,0,0,1,1141.59,1577c-29.4-3.11-71.75-7-122.91-9.7-91.08-4.79-136.61-7.18-197.32,0-18.88,2.24-96.59,12.16-187.61,51.76-36.09,15.7-73.35,31.9-71.16,45.28,3.1,18.92,85.76,36.3,161.73,19.41,37.67-8.38,61.7-22.22,101.36-15.09,27.71,5,49,16.91,57.14,21.56a194.61,194.61,0,0,1,39.89,30.19c45,43,288.48,267,638.31,241.51,171.74-12.51,300.49-80.15,370.91-125.06-21.45,91.06-73.21,255.06-207,414a991,991,0,0,1-263.08,220c7.33,85.95,8.83,249.89-73.31,427A823.39,823.39,0,0,1,1254.81,3100.44ZM1526,1630.56a101.9,101.9,0,0,1-95.11-138.48c24.27,1.31,52.5-1.45,81.79-8.8,30.57-7.66,57.76-19.2,79-32.52a101.88,101.88,0,0,1-65.64,179.8Z" transform="translate(-500.36 -95.27)"/></svg>