<svg id="Layer_1" data-name="Layer 1" xmlns="http://www.w3.org/2000/svg" xmlns:xlink="http://www.w3.org/1999/xlink" viewBox="0 0 2998.39 3882.18"><defs><style>.cls-1{fill:url(#New_Gradient_Swatch_5);}.cls-2{fill:url(#New_Gradient_Swatch_5-2);}.cls-3{fill:#231f20;}.cls-4{fill:#fff;}.cls-5{fill:url(#New_Gradient_Swatch_3);}.cls-6{fill:url(#New_Gradient_Swatch_3-9);}.cls-7{fill:url(#New_Gradient_Swatch_3-10);}.cls-8{fill:url(#New_Gradient_Swatch_3-11);}</style><linearGradient id="New_Gradient_Swatch_5" x1="846.67" y1="1040.93" x2="2265.06" y2="1040.93" gradientUnits="userSpaceOnUse"><stop offset="0" stop-color="#7f7700"/><stop offset="0.5" stop-color="#fff200"/><stop offset="1" stop-color="#7f7700"/></linearGradient><linearGradient id="New_Gradient_Swatch_5-2" x1="681.16" y1="489.89" x2="2410.62" y2="489.89" xlink:href="#New_Gradient_Swatch_5"/><linearGradient id="New_Gradient_Swatch_3" x1="-820.42" y1="4574.22" x2="5181.42" y2="2373.28" gradientUnits="userSpaceOnUse"><stop offset="0" stop-color="#231f20"/><stop offset="0.07" stop-color="#272324"/><stop offset="0.14" stop-color="#332f30"/><stop offset="0.21" stop-color="#474445"/><stop offset="0.28" stop-color="#636061"/><stop offset="0.35" stop-color="#878586"/><stop offset="0.42" stop-color="#b3b2b3"/><stop offset="0.49" stop-color="#e6e7e8"/><stop offset="0.51" stop-color="#d4d4d5"/><stop offset="0.55" stop-color="#aaaaab"/><stop offset="0.59" stop-color="#868485"/><stop offset="0.63" stop-color="#676566"/><stop offset="0.68" stop-color="#4e4b4c"/><stop offset="0.73" stop-color="#3b3738"/><stop offset="0.79" stop-color="#2d2a2b"/><stop offset="0.87" stop-color="#252122"/><stop offset="1" stop-color="#231f20"/></linearGradient><linearGradient id="New_Gradient_Swatch_3-9" x1="2957.64" y1="843.72" x2="-591.17" y2="3857.49" xlink:href="#New_Gradient_Swatch_3"/><linearGradient id="New_Gradient_Swatch_3-10" x1="3010.54" y1="906.01" x2="-538.27" y2="3919.78" xlink:href="#New_Gradient_Swatch_3"/><linearGradient id="New_Gradient_Swatch_3-11" x1="3283.38" y1="1227.29" x2="-265.42" y2="4241.07" xlink:href="#New_Gradient_Swatch_3"/></defs><title>smokey&amp;apos;s chicken logo complete</title><path class="cls-1" d="M846.67,973.29a1965.78,1965.78,0,0,1,1418.39-1.62c-13,9.81-58.12,46.37-74.4,113.22s7,120.1,14,134.77a1810.88,1810.88,0,0,0-1294.94,22.11c8.2-17.78,30.13-71.36,16.18-139.09C910.43,1027.51,861.05,984.87,846.67,973.29Z" transform="translate(-501.25 -95.27)"/><path class="cls-2" d="M840.74,884.52,681.16,489.89l248,301.9L855.83,317.38l325.62,414A2935.75,2935.75,0,0,0,1354,477,2939,2939,0,0,0,1548.05,95.27a2364.87,2364.87,0,0,0,146.63,325.62,2365.28,2365.28,0,0,0,200.55,308.37,2002.46,2002.46,0,0,0,187.61-191.93,2004.29,2004.29,0,0,0,166-224.26Q2201.45,555.67,2154,798.26l256.62-306.21L2246.73,884.52a2041.56,2041.56,0,0,0-524-114.29,1075.62,1075.62,0,0,1-79.79-114.29,1079.93,1079.93,0,0,1-97-207,1353.55,1353.55,0,0,1-64.69,146.64,1354.63,1354.63,0,0,1-105.67,172.51c-81.88,10.6-170,25.22-263.08,45.29C1014.14,834.54,923.39,858.94,840.74,884.52Z" transform="translate(-501.25 -95.27)"/><path class="cls-3" d="M1591.62,1450.76c-21.2,13.32-48.39,24.86-79,32.52-29.29,7.35-57.52,10.11-81.79,8.8a101.9,101.9,0,1,0,160.75-41.32Z" transform="translate(-501.25 -95.27)"/><path class="cls-4" d="M1627.86,1528.68a101.89,101.89,0,1,1-197-36.6c24.27,1.31,52.5-1.45,81.79-8.8,30.57-7.66,57.76-19.2,79-32.52A101.62,101.62,0,0,1,1627.86,1528.68Z" transform="translate(-501.25 -95.27)"/><circle class="cls-3" cx="1030.79" cy="1436.91" r="35.45"/><path class="cls-5" d="M1016.65,3458.54l-34.72,3.89a100.44,100.44,0,0,1-12.46.78H957a281.94,281.94,0,0,1-58.75-6.23,194,194,0,0,1-53-19.06,117.94,117.94,0,0,1-38.72-33.06q-15.15-20.22-15.13-48.24,0-16.34,8.46-33.45A100.64,100.64,0,0,1,823,3292.83,134.06,134.06,0,0,1,856,3271.05a90.07,90.07,0,0,1,38.72-8.56,59.92,59.92,0,0,1,12.46,1.55,102.19,102.19,0,0,1,14.24,4.28,36,36,0,0,1,12,7.39,14.67,14.67,0,0,1,4.89,10.9,17.78,17.78,0,0,1-1.78,8.17c-1.19,2.33-2.37,3.24-3.56,2.72q-17.81-12.43-36.49-12.45-25.83,0-45,19.45a64.18,64.18,0,0,0-19.13,46.68q0,38.13,33.38,54.46T949,3422a237.71,237.71,0,0,0,39.16-3.11,126.38,126.38,0,0,0,34.72-10.89,322,322,0,0,1,13.35-63.4,188.07,188.07,0,0,1,27.15-54.46,136.51,136.51,0,0,1,42.28-38.12q24.91-14.38,58.75-14.4,34.72,0,58.75,18.29t24,45.51q0,19.46-12.47,36.56a163.59,163.59,0,0,1-31.15,31.9,338.76,338.76,0,0,1-40.95,27.62q-22.26,12.84-42.73,23.73-11.57,25.66-16,64.57t-9.79,78.57q-8,77.8-29.82,136.93t-61.42,99.19q-39.61,40-98.36,61.07T763,3884.09A394.46,394.46,0,0,1,665,3870.47q-47.19-12.82-83.68-36.56t-58.3-58.74q-21.82-35-21.81-80.91a153.25,153.25,0,0,1,16.47-70,185.64,185.64,0,0,1,45.4-57.57q28.9-24.9,69-39.29T720.23,3513a247.75,247.75,0,0,1,65,8.94q32.92,9,58.75,24.9t42.28,37.73q16.46,21.79,16.47,48.23a71.52,71.52,0,0,1-4,23.34,68.44,68.44,0,0,1-11.57,21A57.79,57.79,0,0,1,868,3692.32a56.56,56.56,0,0,1-25.81,5.83q-7.14-2.33-8.9-8.16a49.53,49.53,0,0,1-1.78-14.4q0-8.55.89-19.06c.58-7,.89-14.39.89-22.17s-1.34-16.85-4-27.23-8.16-20-16.47-28.78-20.18-16.34-35.6-22.57-35.91-9.33-61.42-9.33q-35.61,0-65.43,12.42t-51.18,33.37A149.42,149.42,0,0,0,566.23,3640a138.35,138.35,0,0,0-11.57,55.47q0,41.13,18.69,70.24A157.34,157.34,0,0,0,621,3813.39a207.53,207.53,0,0,0,64.53,27.16,297.22,297.22,0,0,0,69.43,8.53q7.13,0,13.36-.39c4.14-.27,8.59-.65,13.35-1.17q49.85-7.76,85.9-29.87a246,246,0,0,0,61.86-53.59,277.61,277.61,0,0,0,41.84-69.87,528,528,0,0,0,25.81-78.81,588.37,588.37,0,0,0,13.8-80.75Q1014.87,3494.26,1016.65,3458.54Zm106.81-80.13a315.84,315.84,0,0,0,33.39-17.9,190.52,190.52,0,0,0,28.48-21,151,151,0,0,0,19.58-21q7.56-10.1,7.57-18.67,0-10.89-6.68-17.89a21.84,21.84,0,0,0-16.46-7q-8,0-17.81,8.17T1152,3305.67a175.45,175.45,0,0,0-17.36,33.06A189.13,189.13,0,0,0,1123.46,3378.41Z" transform="translate(-501.25 -95.27)"/><path class="cls-5" d="M1543.61,3737.83q42.72-35,72.54-75.85t58.31-80.52q7.11-8.55,14.24-8.56,8,0,8,11.67,0,10.91-12.46,27.23t-21.36,28.78q-12.48,17.91-29.38,42.79a506.72,506.72,0,0,1-36.5,47.46,273.72,273.72,0,0,1-40.5,38.51q-20.92,15.93-42.28,15.95a44.21,44.21,0,0,1-21.36-5.84,83.18,83.18,0,0,1-20-15.56,79,79,0,0,1-15.13-22.56,64.4,64.4,0,0,1-5.79-26.84q.87-12.43,4.9-32.67t10.68-42.4q6.68-22.18,14.69-43.18t17.8-35.79l17.8-27.23q-22.26,10.13-43.17,31.51a363.33,363.33,0,0,0-39.17,47.85,445.14,445.14,0,0,0-32,54.07q-13.82,27.61-22.7,50.18-3.57,12.45-14.24,26.06t-30.27,13.61a20.53,20.53,0,0,1-12.46-3.89,37.05,37.05,0,0,1-9.35-10.11,53.26,53.26,0,0,1-6.23-13.62,49.5,49.5,0,0,1-2.22-14.39,205.52,205.52,0,0,1,3.56-35q3.54-20.22,9.34-42t12.46-42.4q6.69-20.59,12.91-36.17a50.92,50.92,0,0,1,3.56-6.62,11.76,11.76,0,0,0,1.78-6.61q0-3.89-3.56-9.34a77.74,77.74,0,0,0-16,12.84q-8,8.17-15.58,17.51t-13.8,18.28a138.72,138.72,0,0,0-9.79,15.95q-8.91,16.34-20.92,43.56t-25.36,53.29a337.94,337.94,0,0,1-27.6,45.52q-14.25,19.45-25.81,19.45a53.13,53.13,0,0,1-36-13.62q-15.57-13.61-15.58-33.84a43.41,43.41,0,0,1,3.56-17.51l8-18.28q14.25-29.55,21.81-66.51a441.94,441.94,0,0,0,8.45-79.75,41.85,41.85,0,0,1,7.57-21.78,55.23,55.23,0,0,1,17.36-15.56,78.89,78.89,0,0,1,24.48-9,144.79,144.79,0,0,1,28-2.72q12.45,0,20,5.84t7.56,13.61q0,3.9-3.11,11.28t-6.68,15.95q-3.57,8.57-7.57,16.73c-2.67,5.44-4.31,10-4.89,13.61q8-.77,19.58-12.06t26.26-24.5a264.4,264.4,0,0,1,31.16-24.12q16.45-10.89,34.27-10.89,13.35,0,21.81,4.28a35.36,35.36,0,0,1,13.79,12.44,61.3,61.3,0,0,1,8,19.06q2.67,10.91,4.46,23.34a80.76,80.76,0,0,1-.45,8.17,100.25,100.25,0,0,0-.45,10.5q13.37-11.67,27.15-24.89a279.94,279.94,0,0,1,29.38-24.51A185.8,185.8,0,0,1,1512,3499a89.45,89.45,0,0,1,37-7.78,34.28,34.28,0,0,1,18.69,5.06,42.47,42.47,0,0,1,12.91,12.45,61.56,61.56,0,0,1,7.56,16.33,58.76,58.76,0,0,1,2.67,16.73,91,91,0,0,1-4.45,28.4,165.06,165.06,0,0,1-11.57,26.84q-3.57,7-12,24.11t-17.35,37q-8.91,19.83-15.58,39.29t-6.68,31.11q0,12.47,8.9,12.45A26.08,26.08,0,0,0,1543.61,3737.83Z" transform="translate(-501.25 -95.27)"/><path class="cls-5" d="M1889,3646.36q16-5.43,27.15-10.48a102,102,0,0,0,21.36-13.19,165.91,165.91,0,0,0,21.37-20.94Q1970,3588.94,1986,3568q12.45,2.33,12.46,17.07,0,14-8.9,28.71a131.2,131.2,0,0,1-23.59,28.32,224.47,224.47,0,0,1-32.49,24.84,229.9,229.9,0,0,1-34.72,18.23q-12.48,4.66-18.25,7.38t-8.45,12q-10.68,34.14-39.17,51.6t-67.65,17.46q-59.65,0-93-33.76T1638.84,3651a158.87,158.87,0,0,1,13.79-65.18,176.9,176.9,0,0,1,39.62-55.86l31.15-30.27q10.68-10.86,27.15-18.61t37.83-7.77q26.71,0,46.74,12.42a105.36,105.36,0,0,1,32.49,31,144.52,144.52,0,0,1,18.69,40q6.21,21.33,6.23,39.17a184.33,184.33,0,0,1-1.34,22.5Q1889.86,3629.3,1889,3646.36ZM1728.74,3639q-2.67,8.56-4.45,16.72a74.67,74.67,0,0,0-1.78,15.95,92.46,92.46,0,0,0,2.67,20.23,75.06,75.06,0,0,0,9.35,22.56,62.46,62.46,0,0,0,16.91,18.28q10.23,7.41,25.37,7.39a47,47,0,0,0,20.47-4.66,55.64,55.64,0,0,0,16.47-11.67,60.77,60.77,0,0,0,10.68-15.17q4-8.17,4-14.4v-5.44Q1776.81,3675.59,1728.74,3639Zm122.84,7q1.79-14,3.56-28a215.09,215.09,0,0,0,1.78-27.23,122,122,0,0,0-3.11-25.28,109.11,109.11,0,0,0-9.79-27.23,69,69,0,0,0-16.92-21.39q-10.24-8.57-25.37-8.56-8,0-19.58,3.11t-11.57,11.67a15.42,15.42,0,0,0,1.34,6.22,15.73,15.73,0,0,1,1.33,6.23q0,11.67-9.35,20.61t-9.34,19.84q0,11.67,6.67,24.12a85.65,85.65,0,0,0,18.25,22.95,95.25,95.25,0,0,0,27.15,17.11,86.61,86.61,0,0,0,34.27,6.62A54,54,0,0,0,1851.58,3646Z" transform="translate(-501.25 -95.27)"/><path class="cls-5" d="M2326,3579.12c.58,0,1.33,1.05,2.22,3.12a14.15,14.15,0,0,1,1.34,5.44q0,5.46-4.45,11.67-15.15,24.92-32.49,54.07a528.22,528.22,0,0,1-37.39,54.85,212.34,212.34,0,0,1-44.06,42.79q-24,17.11-51.63,17.11a100.92,100.92,0,0,1-28.93-4.67,139.35,139.35,0,0,1-30.27-13.22,149.78,149.78,0,0,1-27.14-20.23,79.24,79.24,0,0,1-18.7-25.67L2033.18,3653q-3.57,4.66-5.79,7.39a15.75,15.75,0,0,0-3.11,6.62l-12.46,68.46q0,29.57-23.15,29.56-14.25,0-22.7-7.39a49.46,49.46,0,0,1-12.9-17.51,74.34,74.34,0,0,1-5.79-21.39,166.21,166.21,0,0,1-1.33-19.06,139.42,139.42,0,0,1,4.43-35q4.44-17.1,8.88-36.56,19.52-81.69,51.47-149.76t67.47-131.09q8-14.77,20.41-33.84a286.83,286.83,0,0,1,27.95-36.18,168.33,168.33,0,0,1,33.73-28.78,70.35,70.35,0,0,1,38.61-11.67,98.4,98.4,0,0,1,15.54,1.55,55.57,55.57,0,0,1,18.19,6.61,46.23,46.23,0,0,1,15.09,14q6.21,9,6.22,23.73,0,37.34-38.06,94.91t-113.27,129.92a257.33,257.33,0,0,1,28.93-14.39,84.62,84.62,0,0,1,33.38-6.62q28.48,0,49.4,17.12t20.92,44.34a56.42,56.42,0,0,1-.89,9.73,36.82,36.82,0,0,1-2.67,8.95q-14.25,35.79-41.39,52.51T2111.51,3646a83.89,83.89,0,0,0,4,24.12,129.3,129.3,0,0,0,10.68,25.28,79,79,0,0,0,15.58,20.23q8.88,8.16,19.58,8.17,9.78,0,21.81-4.28t19.14-9.73a204.16,204.16,0,0,0,36.49-30,273,273,0,0,0,26.71-32.67q11.55-16.72,22.25-33.85a340.94,340.94,0,0,1,23.15-32.67,10.39,10.39,0,0,1,7.12-2.33,24.46,24.46,0,0,1,4,.38A22.37,22.37,0,0,0,2326,3579.12Zm-225.21,24.12A58.17,58.17,0,0,0,2128,3597a74.62,74.62,0,0,0,20.92-15.95,67,67,0,0,0,13.35-21.4,61.48,61.48,0,0,0,4.45-21.78q0-8.55-8-11.67a40.37,40.37,0,0,0-14.24-3.11q-11.58,0-24.48,6.22a120.17,120.17,0,0,0-24.93,16.34,173.88,173.88,0,0,0-22.25,22.56,133.47,133.47,0,0,0-16.47,24.9q9.79,3.12,21.37,6.22a127.65,127.65,0,0,0,18.69,3.89Zm85.46-312.74q-18.7,35.79-36.95,71.57t-36.05,71.57l-19.58,38.12q36.49-35.78,60.53-63.79t37.83-49.79q13.79-21.76,19.14-37.34t5.34-26.45q0-9.34-2.67-15.56t-8-6.23q-3.57,0-8.46,3.89T2186.29,3290.5Z" transform="translate(-501.25 -95.27)"/><path class="cls-5" d="M2624.23,3563.56q10.68-10.09,15.13-10.11,6.22,0,6.23,12.45,0,14-8.9,29.56a542.25,542.25,0,0,1-32,49.4,388.12,388.12,0,0,1-40.06,46.68,334.6,334.6,0,0,1-49.4,40.46,300.48,300.48,0,0,1-59.2,30.73q-18.69,7-42.73,7-31.17,0-56.08-8.56t-42.28-23a103.84,103.84,0,0,1-27.15-34.23,94.61,94.61,0,0,1-9.79-42.4q0-56.78,26.71-103.08t88.12-76.63a233.56,233.56,0,0,1,40.5-15.56,169.56,169.56,0,0,1,46.74-6.23q40,0,60.52,15.17t20.48,51a61.24,61.24,0,0,1-1.78,13.23q-16.92,39.68-49,59.9t-85.45,20.23a112.23,112.23,0,0,1-22.26-2.34q-11.58-2.32-24.92-4.66a158.31,158.31,0,0,0-13.8,31.12,110.69,110.69,0,0,0-4.9,33.45q0,27.24,14.25,43.56t41.83,16.34a116.83,116.83,0,0,0,47.18-10.11,212.38,212.38,0,0,0,43.62-25.67,296.94,296.94,0,0,0,38.72-35.4q18.24-19.85,33.38-38.9t26.71-36.18Q2616.2,3573.69,2624.23,3563.56Zm-113.05-68.46h-7.12q-13.35,0-28.93,6.94a163.6,163.6,0,0,0-30.27,17.75,205.64,205.64,0,0,0-27.15,23.92,125.63,125.63,0,0,0-19.58,26.24,176.78,176.78,0,0,1,12.91,12.33q5.77,6.19,20.92,6.18a72.1,72.1,0,0,0,33.38-8.49,116.94,116.94,0,0,0,28.93-20.82,127.38,127.38,0,0,0,20-25.08q7.54-12.72,7.56-22Q2521.86,3502.05,2511.18,3495.1Z" transform="translate(-501.25 -95.27)"/><path class="cls-5" d="M2673.2,3715.27q35.58-10.89,57.41-31.51a200.08,200.08,0,0,0,36.5-46.29,292.76,292.76,0,0,0,24-54.07q9.34-28.38,19.14-55.62a261.55,261.55,0,0,1,10.68-24.12,114.67,114.67,0,0,1,15.13-22.95,71.9,71.9,0,0,1,21.37-17.12q12.45-6.6,29.37-6.61a51.76,51.76,0,0,1,18.69,3.11q8,3.12,8,11.67,0,6.24-4.46,15.56a102.82,102.82,0,0,1-8.9,15.56,269.57,269.57,0,0,0-28,61.46q-10.23,32.68-18.24,64.57-5.34,24.91-13.8,54.46t-19.58,59.13q-11.14,29.57-23.59,56.79a517,517,0,0,1-24.93,48.23,318,318,0,0,0,56.08,5.45,195.8,195.8,0,0,0,36.05-3.11,208.12,208.12,0,0,0,31.6-8.56,302.29,302.29,0,0,0,30.27-12.84q15.12-7.39,32-15.94a35,35,0,0,1,8.91-.78,48.62,48.62,0,0,1,21.8,5.05q10.23,5.05,10.24,12.84,0,11.67-20.92,21t-49.4,15.56q-28.5,6.21-58.31,9.72t-46.73,3.5a378.81,378.81,0,0,1-68.54-6.22q-44.52,52.89-92.13,78.57t-113.49,25.68q-22.24,0-40.06-7a99.52,99.52,0,0,1-30.71-18.67,81.18,81.18,0,0,1-19.58-26.06,68.78,68.78,0,0,1-6.68-29.17q0-35,33.82-56.8t89-21.78a318.29,318.29,0,0,1,59.19,5.45q28.92,5.43,62.76,10.89,8.89-7.78,18.25-23.73a251.21,251.21,0,0,0,16.47-33.84,328.23,328.23,0,0,0,12-36.18q4.89-18.27,4.9-32.28a24.63,24.63,0,0,0-.45-4.67,21.13,21.13,0,0,1-.44-3.89,82.14,82.14,0,0,0-20.47,15.17q-9.81,9.73-20.48,19.06a121.84,121.84,0,0,1-23.14,15.95q-12.48,6.62-28.49,6.61-16.92,0-28.48-7.39a60,60,0,0,1-18.7-18.67,79.3,79.3,0,0,1-10.23-25.28,125.69,125.69,0,0,1-3.12-27.23q0-46.68,17.36-93.75a294.67,294.67,0,0,1,48.51-85.19,68.81,68.81,0,0,0,8-12.45,112.39,112.39,0,0,1,7.56-12.83,36.54,36.54,0,0,1,9.79-9.73,24.19,24.19,0,0,1,13.8-3.89,54,54,0,0,1,12,1.56,105.36,105.36,0,0,1,12.9,3.89,48.75,48.75,0,0,1,10.69,5.45c3,2.07,4.45,4.15,4.45,6.22a40,40,0,0,1-3.56,15.95q-3.57,8.16-7.12,15.17-10.7,24.9-22.26,47.07t-20.47,43.95a339.7,339.7,0,0,0-14.69,44.35,193,193,0,0,0-5.78,48.23Q2666.08,3703.6,2673.2,3715.27Zm11.57,146.26a123,123,0,0,0-45.4-12.06q-24.93-1.95-47.18-1.95-16,0-35.16,1.17a220.38,220.38,0,0,0-36.05,5.06q-16.91,3.89-28,12.06T2481.81,3888q0,15.55,16.92,29.95t41.83,14.39a156.89,156.89,0,0,0,45-6.22,211.26,211.26,0,0,0,39.16-15.95,188.77,188.77,0,0,0,33.38-22.56A253.2,253.2,0,0,0,2684.77,3861.53Z" transform="translate(-501.25 -95.27)"/><path class="cls-5" d="M3083.55,3382.3q-17.82,28-49,28v-27.22q14.23,0,27.6-19.84t13.35-47.85h-56.08V3233.7h87.24v81.69Q3106.7,3355.07,3083.55,3382.3Z" transform="translate(-501.25 -95.27)"/><path class="cls-5" d="M3273.15,3646.81q-3.57-14-20.47-32.29t-36-38.12a370.19,370.19,0,0,1-34.27-40.84q-15.15-21-15.14-42a66.25,66.25,0,0,1,6.68-28.79,78.42,78.42,0,0,1,19.58-25.28q12.9-11.27,32.05-17.9t44.06-6.61q9.79,0,24.48,3.5a147.06,147.06,0,0,1,28,9.73,91.18,91.18,0,0,1,23.14,15.17q9.8,9,9.8,19.84a10.45,10.45,0,0,1-2.67,7c-1.78,2.08-4.76,3.11-8.91,3.11a32.33,32.33,0,0,1-17.35-4.67q-7.57-4.67-14.69-9.72t-14.69-9.73a30.83,30.83,0,0,0-16.47-4.67q-20.47,0-30.71,12.06t-10.23,21.4c0,3.11.58,5.19,1.78,6.22a144.7,144.7,0,0,0,29.37,38.9q18.69,17.91,37.39,35.79a432.45,432.45,0,0,1,34.71,37.34,122.52,122.52,0,0,1,23.15,43.57q0,1.56,6.23,7,21.36-2.34,36.05-9.73a90.43,90.43,0,0,0,25.37-18.67,131.55,131.55,0,0,0,18.69-25.28q8-14,15.14-28.79a14.11,14.11,0,0,1,5.34-.78c4.74,0,8.15,1.83,10.23,5.45a23.19,23.19,0,0,1,3.12,11.67,17.51,17.51,0,0,1-3.56,10.89q-11.58,30.34-32.05,50.57t-61.42,31.12q-16,3.9-22.25,12.45a229.58,229.58,0,0,0-13.35,21q-8,14.79-23.15,26.45A160.51,160.51,0,0,1,3296.3,3753a211.2,211.2,0,0,1-40.51,12.84,205.87,205.87,0,0,1-43.17,4.66,106.53,106.53,0,0,1-29.82-4.27,93.59,93.59,0,0,1-26.26-12.06,64.25,64.25,0,0,1-18.69-19.06,45.08,45.08,0,0,1-7.12-24.51q0-21,14.69-32.67t35.6-17.12a238.93,238.93,0,0,1,44.06-7q23.15-1.54,41-3.11a6.47,6.47,0,0,0,3.56-1.17A33.38,33.38,0,0,0,3273.15,3646.81Zm5.34,38.12h-48.95a168.34,168.34,0,0,0-28,2.33,73.77,73.77,0,0,0-23.59,7.78q-9.81,5.46-9.79,17.12,0,13.23,12.9,19.06t31.6,5.83q25.82,0,46.29-12.06t20.47-31.5A32.64,32.64,0,0,0,3278.49,3684.93Z" transform="translate(-501.25 -95.27)"/><path class="cls-6" d="M959.37,1774.87a1985.67,1985.67,0,0,0-146.63,345c-44.32,139.67-91.47,275.89-82,452.85,4.4,81.81,12.32,393.52,215.64,530.48,27.67,18.63,79.83,52.74,146.64,47.44,114.49-9.09,183.62-137.68,228.58-220,45.29-82.88,81.78-190.22,103.51-465.79a3975,3975,0,0,0,8.63-478.72c-48.16,4.45-122.53,4.9-207-21.57C1077.91,1918,991.77,1817.33,959.37,1774.87Z" transform="translate(-501.25 -95.27)"/><path class="cls-7" d="M1481.23,2013.33q-2.16,179-4.31,358A830.68,830.68,0,0,0,1675.31,2229c113.58-110.24,170.44-229,198.39-301.9Z" transform="translate(-501.25 -95.27)"/><path class="cls-8" d="M1254.81,3100.44H3499.64a1576,1576,0,0,0-317-414L3312,2772.75a1365.28,1365.28,0,0,0-293.27-405.4l150.95,120.75A982.77,982.77,0,0,0,3049,2294c-89-111.4-184.84-180.83-181.14-185.46,1.72-2.15,24.24,10.85,120.76,81.95a1113.47,1113.47,0,0,0-64.7-94.89,1124.94,1124.94,0,0,0-194.07-198.39l116.44,43.13c-41.46-46.9-88.74-96.33-142.32-146.63-52-48.84-102.84-91.79-150.94-129.39l116.44,43.13a1437.07,1437.07,0,0,0-176.83-207c-37.41-36.2-156.94-150.37-314.13-230.48-246.15-125.44-480.28-114.17-710-103.11,0,0-288.85,13.89-567.09,115.71-66.5,24.34-135,58.3-135,58.3-55.77,27.66-88.86,44.07-126.16,74.4-27.55,22.42-65.74,59.22-100.27,116.45a581.62,581.62,0,0,1,61.46-22.64c84.44-25.84,153.77-26,190.84-25.87A708.52,708.52,0,0,1,1141.59,1577c-29.4-3.11-71.75-7-122.91-9.7-91.08-4.79-136.61-7.18-197.32,0-18.88,2.24-96.59,12.16-187.61,51.76-36.09,15.7-73.35,31.9-71.16,45.28,3.1,18.92,85.76,36.3,161.73,19.41,37.67-8.38,61.7-22.22,101.36-15.09,27.71,5,49,16.91,57.14,21.56a194.61,194.61,0,0,1,39.89,30.19c45,43,288.48,267,638.31,241.51,171.74-12.51,300.49-80.15,370.91-125.06-21.45,91.06-73.21,255.06-207,414a991,991,0,0,1-263.08,220c7.33,85.95,8.83,249.89-73.31,427A823.39,823.39,0,0,1,1254.81,3100.44ZM1526,1630.56a101.9,101.9,0,0,1-95.11-138.48c24.27,1.31,52.5-1.45,81.79-8.8,30.57-7.66,57.76-19.2,79-32.52a101.88,101.88,0,0,1-65.64,179.8Z" transform="translate(-501.25 -95.27)"/></svg>